<?xml version="1.0" encoding="iso-8859-1"?>
<!-- Generator: Adobe Illustrator 21.0.0, SVG Export Plug-In . SVG Version: 6.00 Build 0)  -->
<svg version="1.1" id="Capa_1" xmlns="http://www.w3.org/2000/svg" xmlns:xlink="http://www.w3.org/1999/xlink" x="0px" y="0px"
	 viewBox="0 0 512 512" style="enable-background:new 0 0 512 512;" xml:space="preserve">
<g>
	<g>
		<path d="M334,63.5c-51.466,0-97.891,21.964-130.42,57H24c-13.234,0-24,10.767-24,24c0,13.233,10.766,24,24,24h98
			c4.962,0,9,4.037,9,9s-4.038,9-9,9h-18c-13.234,0-24,10.767-24,24c0,13.233,10.766,24,24,24h18c4.962,0,9,4.037,9,9s-4.038,9-9,9
			H51c-13.234,0-24,10.767-24,24c0,13.233,10.766,24,24,24h71c4.962,0,9,4.037,9,9s-4.038,9-9,9H66.433
			c-6.546,0-12.948,2.697-17.563,7.399c-4.547,4.633-6.985,10.689-6.865,17.057C42.248,355.938,53.013,366.5,66,366.5h141.319
			c11.526,11.679,24.638,21.781,38.944,29.903C272.88,411.514,303.219,419.5,334,419.5c98.149,0,178-79.851,178-178
			S432.149,63.5,334,63.5z M334,404.5c-56.673,0-108.427-28.763-138.442-76.939c-2.19-3.516-6.815-4.591-10.332-2.399
			c-3.516,2.189-4.59,6.815-2.4,10.331c3.457,5.549,7.234,10.884,11.27,16.008H66c-4.87,0-8.907-3.959-8.999-8.825
			c-0.043-2.308,0.871-4.534,2.574-6.269c1.813-1.847,4.312-2.906,6.857-2.906H122c13.233,0,24-10.767,24-24
			c0-13.233-10.767-24-24-24H51c-4.962,0-9-4.037-9-9s4.038-9,9-9h71c13.233,0,24-10.767,24-24c0-13.233-10.767-24-24-24h-18
			c-4.962,0-9-4.037-9-9s4.038-9,9-9h18c13.233,0,24-10.767,24-24c0-13.233-10.767-24-24-24H24c-4.962,0-9-4.037-9-9s4.038-9,9-9
			h167.093C169.056,165.132,156,201.819,156,241.5c0,22.806,4.262,45.027,12.668,66.049c1.538,3.847,5.901,5.718,9.749,4.18
			c3.846-1.538,5.717-5.902,4.179-9.748c-4.902-12.26-8.257-24.969-10.052-37.98H273.02c9.174,24.785,33.046,42.5,60.981,42.5
			s51.806-17.715,60.981-42.5H495.44C484.446,343.268,416.245,404.5,334,404.5z M269.446,249h-98.274
			c-0.112-2.492-0.172-4.992-0.172-7.5c0-2.178,0.056-4.343,0.141-6.5h98.185c-0.213,2.138-0.326,4.306-0.326,6.5
			C269,244.038,269.162,246.537,269.446,249z M284,241.5c0-27.57,22.43-50,50-50s50,22.43,50,50s-22.43,50-50,50
			S284,269.07,284,241.5z M398.554,249c0.284-2.463,0.446-4.962,0.446-7.5c0-2.194-0.113-4.362-0.326-6.5h41.076
			c4.143,0,7.5-3.357,7.5-7.5s-3.357-7.5-7.5-7.5h-44.421c-8.897-25.304-33.022-43.5-61.329-43.5s-52.432,18.196-61.329,43.5H172.42
			C182.976,140.247,251.409,78.5,334,78.5S485.024,140.247,495.58,220h-25.83c-4.143,0-7.5,3.357-7.5,7.5s3.357,7.5,7.5,7.5h27.109
			c0.085,2.157,0.141,4.322,0.141,6.5c0,2.514-0.066,5.013-0.179,7.5H398.554z"/>
	</g>
</g>
<g>
	<g>
		<path d="M334,202.5c-21.505,0-39,17.495-39,39s17.495,39,39,39s39-17.495,39-39S355.505,202.5,334,202.5z M334,265.5
			c-13.233,0-24-10.767-24-24c0-13.233,10.767-24,24-24c13.233,0,24,10.767,24,24C358,254.733,347.233,265.5,334,265.5z"/>
	</g>
</g>
<g>
	<g>
		<path d="M39,186.5H24c-13.234,0-24,10.767-24,24c0,13.233,10.766,24,24,24h15c13.234,0,24-10.767,24-24
			C63,197.267,52.234,186.5,39,186.5z M39,219.5H24c-4.962,0-9-4.037-9-9s4.038-9,9-9h15c4.962,0,9,4.037,9,9S43.962,219.5,39,219.5
			z"/>
	</g>
</g>
<g>
	<g>
		<path d="M226,23.5h-45c-11.58,0-21,9.421-21,21s9.42,21,21,21h45c11.58,0,21-9.421,21-21S237.58,23.5,226,23.5z M226,50.5h-45
			c-3.309,0-6-2.691-6-6s2.691-6,6-6h45c3.309,0,6,2.691,6,6S229.309,50.5,226,50.5z"/>
	</g>
</g>
<g>
	<g>
		<path d="M133,426.5H48c-10.477,0-19,8.523-19,19s8.523,19,19,19h85c10.477,0,19-8.523,19-19S143.477,426.5,133,426.5z M133,449.5
			H48c-2.206,0-4-1.794-4-4s1.794-4,4-4h85c2.206,0,4,1.794,4,4S135.206,449.5,133,449.5z"/>
	</g>
</g>
<g>
	<g>
		<path d="M345,450.5h-85c-10.477,0-19,8.523-19,19s8.523,19,19,19h85c10.477,0,19-8.523,19-19S355.477,450.5,345,450.5z M345,473.5
			h-85c-2.206,0-4-1.794-4-4s1.794-4,4-4h85c2.206,0,4,1.794,4,4S347.206,473.5,345,473.5z"/>
	</g>
</g>
<g>
</g>
<g>
</g>
<g>
</g>
<g>
</g>
<g>
</g>
<g>
</g>
<g>
</g>
<g>
</g>
<g>
</g>
<g>
</g>
<g>
</g>
<g>
</g>
<g>
</g>
<g>
</g>
<g>
</g>
</svg>
